<svg width="512" height="512" viewBox="0 0 512 512" fill="none" xmlns="http://www.w3.org/2000/svg">
  <defs>
    <linearGradient id="grad1" x1="0%" y1="0%" x2="100%" y2="100%">
      <stop offset="0%" style="stop-color:#7c3aed;stop-opacity:1" />
      <stop offset="100%" style="stop-color:#0ea5e9;stop-opacity:1" />
    </linearGradient>
    <filter id="glow" x="-20%" y="-20%" width="140%" height="140%">
      <feGaussianBlur stdDeviation="15" result="blur" />
      <feComposite in="SourceGraphic" in2="blur" operator="over" />
    </filter>
  </defs>
  <rect width="512" height="512" rx="120" fill="#080c14"/>
  <circle cx="256" cy="256" r="210" stroke="url(#grad1)" stroke-width="8" fill="none" opacity="0.3"/>
  <g filter="url(#glow)">
    <path d="M156 120H356V160C356 213.017 313.017 256 260 256C313.017 256 356 298.983 356 352V392H156V352C156 298.983 198.983 256 251 256C198.983 256 156 213.017 156 160V120Z" fill="url(#grad1)" opacity="0.9"/>
    <path d="M176 140V160C176 201.978 210.022 236 252 236C293.978 236 328 201.978 328 160V140H176Z" fill="white" opacity="0.2"/>
    <path d="M176 372V352C176 310.022 210.022 276 252 276C293.978 276 328 310.022 328 352V372H176Z" fill="white" opacity="0.4"/>
  </g>
</svg>
